<mxfile host="app.diagrams.net" agent="Mozilla/5.0 (Windows NT 10.0; Win64; x64) AppleWebKit/537.36 (KHTML, like Gecko) Chrome/137.0.0.0 Safari/537.36" version="27.1.5">
  <diagram id="C5RBs43oDa-KdzZeNtuy" name="Page-1">
    <mxGraphModel dx="2000" dy="1206" grid="1" gridSize="10" guides="1" tooltips="1" connect="1" arrows="1" fold="1" page="1" pageScale="1" pageWidth="827" pageHeight="1169" math="0" shadow="0">
      <root>
        <mxCell id="WIyWlLk6GJQsqaUBKTNV-0" />
        <mxCell id="WIyWlLk6GJQsqaUBKTNV-1" parent="WIyWlLk6GJQsqaUBKTNV-0" />
        <mxCell id="WIyWlLk6GJQsqaUBKTNV-3" value="&lt;b&gt;Joystick P1&lt;/b&gt;&lt;div&gt;Period 10&lt;/div&gt;" style="rounded=1;whiteSpace=wrap;html=1;fontSize=12;glass=0;strokeWidth=1;shadow=0;" parent="WIyWlLk6GJQsqaUBKTNV-1" vertex="1">
          <mxGeometry x="160" y="80" width="120" height="60" as="geometry" />
        </mxCell>
        <mxCell id="WIyWlLk6GJQsqaUBKTNV-5" value="ADC_read(0)" style="edgeStyle=orthogonalEdgeStyle;rounded=0;html=1;jettySize=auto;orthogonalLoop=1;fontSize=11;endArrow=block;endFill=0;endSize=8;strokeWidth=1;shadow=0;labelBackgroundColor=none;" parent="WIyWlLk6GJQsqaUBKTNV-1" edge="1">
          <mxGeometry y="10" relative="1" as="geometry">
            <mxPoint as="offset" />
            <mxPoint x="90" y="110" as="sourcePoint" />
            <mxPoint x="160" y="109.74" as="targetPoint" />
          </mxGeometry>
        </mxCell>
        <mxCell id="8Ye4uEbIc81NBBEp1oEI-2" value="" style="endArrow=none;html=1;rounded=0;exitX=1;exitY=0.5;exitDx=0;exitDy=0;entryX=0;entryY=0.5;entryDx=0;entryDy=0;" edge="1" parent="WIyWlLk6GJQsqaUBKTNV-1" source="WIyWlLk6GJQsqaUBKTNV-3" target="8Ye4uEbIc81NBBEp1oEI-13">
          <mxGeometry width="50" height="50" relative="1" as="geometry">
            <mxPoint x="250" y="190" as="sourcePoint" />
            <mxPoint x="350" y="110" as="targetPoint" />
          </mxGeometry>
        </mxCell>
        <mxCell id="8Ye4uEbIc81NBBEp1oEI-4" value="&lt;font style=&quot;font-size: 7px;&quot;&gt;P1_movement&lt;/font&gt;" style="ellipse;whiteSpace=wrap;html=1;" vertex="1" parent="WIyWlLk6GJQsqaUBKTNV-1">
          <mxGeometry x="280" y="90" width="70" height="20" as="geometry" />
        </mxCell>
        <mxCell id="8Ye4uEbIc81NBBEp1oEI-5" value="&lt;b&gt;Joystick P2&lt;/b&gt;&lt;div&gt;Period 10&lt;/div&gt;" style="rounded=1;whiteSpace=wrap;html=1;fontSize=12;glass=0;strokeWidth=1;shadow=0;" vertex="1" parent="WIyWlLk6GJQsqaUBKTNV-1">
          <mxGeometry x="160" y="160" width="120" height="60" as="geometry" />
        </mxCell>
        <mxCell id="8Ye4uEbIc81NBBEp1oEI-6" value="ADC_read(1)" style="edgeStyle=orthogonalEdgeStyle;rounded=0;html=1;jettySize=auto;orthogonalLoop=1;fontSize=11;endArrow=block;endFill=0;endSize=8;strokeWidth=1;shadow=0;labelBackgroundColor=none;" edge="1" parent="WIyWlLk6GJQsqaUBKTNV-1">
          <mxGeometry x="0.0196" y="10" relative="1" as="geometry">
            <mxPoint as="offset" />
            <mxPoint x="90" y="190" as="sourcePoint" />
            <mxPoint x="160" y="189.74" as="targetPoint" />
          </mxGeometry>
        </mxCell>
        <mxCell id="8Ye4uEbIc81NBBEp1oEI-7" value="" style="endArrow=none;html=1;rounded=0;exitX=1;exitY=0.5;exitDx=0;exitDy=0;entryX=0;entryY=0.5;entryDx=0;entryDy=0;" edge="1" parent="WIyWlLk6GJQsqaUBKTNV-1" source="8Ye4uEbIc81NBBEp1oEI-5" target="8Ye4uEbIc81NBBEp1oEI-14">
          <mxGeometry width="50" height="50" relative="1" as="geometry">
            <mxPoint x="250" y="270" as="sourcePoint" />
            <mxPoint x="350" y="190" as="targetPoint" />
          </mxGeometry>
        </mxCell>
        <mxCell id="8Ye4uEbIc81NBBEp1oEI-8" value="&lt;font style=&quot;font-size: 7px;&quot;&gt;P2_movement&lt;/font&gt;" style="ellipse;whiteSpace=wrap;html=1;" vertex="1" parent="WIyWlLk6GJQsqaUBKTNV-1">
          <mxGeometry x="280" y="170" width="70" height="20" as="geometry" />
        </mxCell>
        <mxCell id="8Ye4uEbIc81NBBEp1oEI-9" value="&lt;b&gt;Start Button&lt;/b&gt;&lt;div&gt;Period 1&lt;/div&gt;" style="rounded=1;whiteSpace=wrap;html=1;fontSize=12;glass=0;strokeWidth=1;shadow=0;" vertex="1" parent="WIyWlLk6GJQsqaUBKTNV-1">
          <mxGeometry x="160" y="270" width="120" height="60" as="geometry" />
        </mxCell>
        <mxCell id="8Ye4uEbIc81NBBEp1oEI-10" value="PINC 2" style="edgeStyle=orthogonalEdgeStyle;rounded=0;html=1;jettySize=auto;orthogonalLoop=1;fontSize=11;endArrow=block;endFill=0;endSize=8;strokeWidth=1;shadow=0;labelBackgroundColor=none;" edge="1" parent="WIyWlLk6GJQsqaUBKTNV-1">
          <mxGeometry x="0.0196" y="10" relative="1" as="geometry">
            <mxPoint as="offset" />
            <mxPoint x="90" y="300" as="sourcePoint" />
            <mxPoint x="160" y="299.74" as="targetPoint" />
          </mxGeometry>
        </mxCell>
        <mxCell id="8Ye4uEbIc81NBBEp1oEI-11" value="" style="endArrow=none;html=1;rounded=0;exitX=1;exitY=0.5;exitDx=0;exitDy=0;entryX=0.021;entryY=0.198;entryDx=0;entryDy=0;entryPerimeter=0;" edge="1" parent="WIyWlLk6GJQsqaUBKTNV-1" source="8Ye4uEbIc81NBBEp1oEI-9" target="8Ye4uEbIc81NBBEp1oEI-18">
          <mxGeometry width="50" height="50" relative="1" as="geometry">
            <mxPoint x="250" y="380" as="sourcePoint" />
            <mxPoint x="350" y="300" as="targetPoint" />
          </mxGeometry>
        </mxCell>
        <mxCell id="8Ye4uEbIc81NBBEp1oEI-12" value="&lt;font style=&quot;font-size: 7px;&quot;&gt;begin_game&lt;/font&gt;" style="ellipse;whiteSpace=wrap;html=1;" vertex="1" parent="WIyWlLk6GJQsqaUBKTNV-1">
          <mxGeometry x="280" y="280" width="70" height="20" as="geometry" />
        </mxCell>
        <mxCell id="8Ye4uEbIc81NBBEp1oEI-13" value="&lt;b&gt;Position P1&lt;/b&gt;&lt;div&gt;Period 1&lt;/div&gt;" style="rounded=1;whiteSpace=wrap;html=1;fontSize=12;glass=0;strokeWidth=1;shadow=0;" vertex="1" parent="WIyWlLk6GJQsqaUBKTNV-1">
          <mxGeometry x="390" y="80" width="120" height="60" as="geometry" />
        </mxCell>
        <mxCell id="8Ye4uEbIc81NBBEp1oEI-14" value="&lt;b&gt;Position P2&lt;/b&gt;&lt;div&gt;Period 1&lt;/div&gt;" style="rounded=1;whiteSpace=wrap;html=1;fontSize=12;glass=0;strokeWidth=1;shadow=0;" vertex="1" parent="WIyWlLk6GJQsqaUBKTNV-1">
          <mxGeometry x="390" y="160" width="120" height="60" as="geometry" />
        </mxCell>
        <mxCell id="8Ye4uEbIc81NBBEp1oEI-16" value="&lt;font style=&quot;font-size: 7px;&quot;&gt;P1_position&lt;/font&gt;" style="ellipse;whiteSpace=wrap;html=1;" vertex="1" parent="WIyWlLk6GJQsqaUBKTNV-1">
          <mxGeometry x="510" y="90" width="70" height="20" as="geometry" />
        </mxCell>
        <mxCell id="8Ye4uEbIc81NBBEp1oEI-17" value="&lt;font style=&quot;font-size: 7px;&quot;&gt;P2_position&lt;/font&gt;" style="ellipse;whiteSpace=wrap;html=1;" vertex="1" parent="WIyWlLk6GJQsqaUBKTNV-1">
          <mxGeometry x="510" y="170" width="70" height="20" as="geometry" />
        </mxCell>
        <mxCell id="8Ye4uEbIc81NBBEp1oEI-18" value="&lt;b&gt;Main LCD&lt;/b&gt;&lt;br&gt;&lt;div&gt;Period 1&lt;/div&gt;" style="rounded=1;whiteSpace=wrap;html=1;fontSize=12;glass=0;strokeWidth=1;shadow=0;" vertex="1" parent="WIyWlLk6GJQsqaUBKTNV-1">
          <mxGeometry x="760" y="280" width="120" height="100" as="geometry" />
        </mxCell>
        <mxCell id="8Ye4uEbIc81NBBEp1oEI-19" value="" style="endArrow=none;html=1;rounded=0;exitX=0.181;exitY=-0.008;exitDx=0;exitDy=0;exitPerimeter=0;" edge="1" parent="WIyWlLk6GJQsqaUBKTNV-1" source="8Ye4uEbIc81NBBEp1oEI-18">
          <mxGeometry width="50" height="50" relative="1" as="geometry">
            <mxPoint x="410" y="260" as="sourcePoint" />
            <mxPoint x="780" y="180" as="targetPoint" />
          </mxGeometry>
        </mxCell>
        <mxCell id="8Ye4uEbIc81NBBEp1oEI-20" value="" style="endArrow=none;html=1;rounded=0;exitX=1;exitY=0.5;exitDx=0;exitDy=0;" edge="1" parent="WIyWlLk6GJQsqaUBKTNV-1" source="8Ye4uEbIc81NBBEp1oEI-16">
          <mxGeometry width="50" height="50" relative="1" as="geometry">
            <mxPoint x="490" y="210" as="sourcePoint" />
            <mxPoint x="840" y="100" as="targetPoint" />
          </mxGeometry>
        </mxCell>
        <mxCell id="8Ye4uEbIc81NBBEp1oEI-21" value="" style="endArrow=none;html=1;rounded=0;exitX=0.667;exitY=0;exitDx=0;exitDy=0;exitPerimeter=0;" edge="1" parent="WIyWlLk6GJQsqaUBKTNV-1" source="8Ye4uEbIc81NBBEp1oEI-18">
          <mxGeometry width="50" height="50" relative="1" as="geometry">
            <mxPoint x="490" y="210" as="sourcePoint" />
            <mxPoint x="840" y="100" as="targetPoint" />
          </mxGeometry>
        </mxCell>
        <mxCell id="8Ye4uEbIc81NBBEp1oEI-24" value="&lt;b&gt;Ball Update&lt;/b&gt;&lt;br&gt;&lt;div&gt;Period 1&lt;/div&gt;" style="rounded=1;whiteSpace=wrap;html=1;fontSize=12;glass=0;strokeWidth=1;shadow=0;" vertex="1" parent="WIyWlLk6GJQsqaUBKTNV-1">
          <mxGeometry x="340" y="400" width="120" height="140" as="geometry" />
        </mxCell>
        <mxCell id="8Ye4uEbIc81NBBEp1oEI-25" value="" style="endArrow=none;html=1;rounded=0;exitX=0.5;exitY=0;exitDx=0;exitDy=0;" edge="1" parent="WIyWlLk6GJQsqaUBKTNV-1" source="8Ye4uEbIc81NBBEp1oEI-24">
          <mxGeometry width="50" height="50" relative="1" as="geometry">
            <mxPoint x="400" y="350" as="sourcePoint" />
            <mxPoint x="400" y="300" as="targetPoint" />
          </mxGeometry>
        </mxCell>
        <mxCell id="8Ye4uEbIc81NBBEp1oEI-26" value="&lt;font style=&quot;font-size: 7px;&quot;&gt;P1_score&lt;/font&gt;" style="ellipse;whiteSpace=wrap;html=1;" vertex="1" parent="WIyWlLk6GJQsqaUBKTNV-1">
          <mxGeometry x="460" y="490" width="70" height="20" as="geometry" />
        </mxCell>
        <mxCell id="8Ye4uEbIc81NBBEp1oEI-27" value="&lt;font style=&quot;font-size: 7px;&quot;&gt;P2_score&lt;/font&gt;" style="ellipse;whiteSpace=wrap;html=1;" vertex="1" parent="WIyWlLk6GJQsqaUBKTNV-1">
          <mxGeometry x="460" y="510" width="70" height="20" as="geometry" />
        </mxCell>
        <mxCell id="8Ye4uEbIc81NBBEp1oEI-28" value="&lt;b&gt;Results LCD&lt;/b&gt;&lt;br&gt;&lt;div&gt;Period 100&lt;/div&gt;" style="rounded=1;whiteSpace=wrap;html=1;fontSize=12;glass=0;strokeWidth=1;shadow=0;" vertex="1" parent="WIyWlLk6GJQsqaUBKTNV-1">
          <mxGeometry x="600" y="460" width="120" height="100" as="geometry" />
        </mxCell>
        <mxCell id="8Ye4uEbIc81NBBEp1oEI-29" value="" style="endArrow=none;html=1;rounded=0;entryX=-0.022;entryY=0.398;entryDx=0;entryDy=0;entryPerimeter=0;exitX=1;exitY=0.5;exitDx=0;exitDy=0;" edge="1" parent="WIyWlLk6GJQsqaUBKTNV-1" source="8Ye4uEbIc81NBBEp1oEI-26" target="8Ye4uEbIc81NBBEp1oEI-28">
          <mxGeometry width="50" height="50" relative="1" as="geometry">
            <mxPoint x="400" y="350" as="sourcePoint" />
            <mxPoint x="450" y="300" as="targetPoint" />
          </mxGeometry>
        </mxCell>
        <mxCell id="8Ye4uEbIc81NBBEp1oEI-30" value="" style="endArrow=none;html=1;rounded=0;entryX=-0.004;entryY=0.595;entryDx=0;entryDy=0;entryPerimeter=0;exitX=1;exitY=0.5;exitDx=0;exitDy=0;" edge="1" parent="WIyWlLk6GJQsqaUBKTNV-1" source="8Ye4uEbIc81NBBEp1oEI-27" target="8Ye4uEbIc81NBBEp1oEI-28">
          <mxGeometry width="50" height="50" relative="1" as="geometry">
            <mxPoint x="460" y="410" as="sourcePoint" />
            <mxPoint x="510" y="360" as="targetPoint" />
          </mxGeometry>
        </mxCell>
        <mxCell id="8Ye4uEbIc81NBBEp1oEI-31" value="" style="endArrow=none;html=1;rounded=0;exitX=1;exitY=0.5;exitDx=0;exitDy=0;" edge="1" parent="WIyWlLk6GJQsqaUBKTNV-1" source="8Ye4uEbIc81NBBEp1oEI-17">
          <mxGeometry width="50" height="50" relative="1" as="geometry">
            <mxPoint x="570" y="210" as="sourcePoint" />
            <mxPoint x="780" y="180" as="targetPoint" />
          </mxGeometry>
        </mxCell>
        <mxCell id="8Ye4uEbIc81NBBEp1oEI-32" value="&lt;font style=&quot;font-size: 7px;&quot;&gt;ball_x&lt;/font&gt;" style="ellipse;whiteSpace=wrap;html=1;" vertex="1" parent="WIyWlLk6GJQsqaUBKTNV-1">
          <mxGeometry x="460" y="400" width="70" height="20" as="geometry" />
        </mxCell>
        <mxCell id="8Ye4uEbIc81NBBEp1oEI-33" value="&lt;font style=&quot;font-size: 7px;&quot;&gt;ball_x&lt;/font&gt;" style="ellipse;whiteSpace=wrap;html=1;" vertex="1" parent="WIyWlLk6GJQsqaUBKTNV-1">
          <mxGeometry x="460" y="420" width="70" height="20" as="geometry" />
        </mxCell>
        <mxCell id="8Ye4uEbIc81NBBEp1oEI-37" value="" style="endArrow=none;html=1;rounded=0;exitX=0.589;exitY=-0.044;exitDx=0;exitDy=0;exitPerimeter=0;" edge="1" parent="WIyWlLk6GJQsqaUBKTNV-1" source="8Ye4uEbIc81NBBEp1oEI-32">
          <mxGeometry width="50" height="50" relative="1" as="geometry">
            <mxPoint x="430" y="420" as="sourcePoint" />
            <mxPoint x="500" y="320" as="targetPoint" />
          </mxGeometry>
        </mxCell>
        <mxCell id="8Ye4uEbIc81NBBEp1oEI-38" value="" style="endArrow=none;html=1;rounded=0;entryX=0.016;entryY=0.392;entryDx=0;entryDy=0;entryPerimeter=0;" edge="1" parent="WIyWlLk6GJQsqaUBKTNV-1" target="8Ye4uEbIc81NBBEp1oEI-18">
          <mxGeometry width="50" height="50" relative="1" as="geometry">
            <mxPoint x="500" y="320" as="sourcePoint" />
            <mxPoint x="610" y="360" as="targetPoint" />
          </mxGeometry>
        </mxCell>
        <mxCell id="8Ye4uEbIc81NBBEp1oEI-39" value="" style="endArrow=none;html=1;rounded=0;exitX=1;exitY=0.5;exitDx=0;exitDy=0;" edge="1" parent="WIyWlLk6GJQsqaUBKTNV-1" source="8Ye4uEbIc81NBBEp1oEI-33">
          <mxGeometry width="50" height="50" relative="1" as="geometry">
            <mxPoint x="560" y="410" as="sourcePoint" />
            <mxPoint x="560" y="430" as="targetPoint" />
          </mxGeometry>
        </mxCell>
        <mxCell id="8Ye4uEbIc81NBBEp1oEI-40" value="" style="endArrow=none;html=1;rounded=0;" edge="1" parent="WIyWlLk6GJQsqaUBKTNV-1">
          <mxGeometry width="50" height="50" relative="1" as="geometry">
            <mxPoint x="560" y="430" as="sourcePoint" />
            <mxPoint x="560" y="340" as="targetPoint" />
          </mxGeometry>
        </mxCell>
        <mxCell id="8Ye4uEbIc81NBBEp1oEI-41" value="" style="endArrow=none;html=1;rounded=0;entryX=-0.015;entryY=0.598;entryDx=0;entryDy=0;entryPerimeter=0;" edge="1" parent="WIyWlLk6GJQsqaUBKTNV-1" target="8Ye4uEbIc81NBBEp1oEI-18">
          <mxGeometry width="50" height="50" relative="1" as="geometry">
            <mxPoint x="560" y="340" as="sourcePoint" />
            <mxPoint x="610" y="360" as="targetPoint" />
          </mxGeometry>
        </mxCell>
        <mxCell id="8Ye4uEbIc81NBBEp1oEI-42" value="&lt;font style=&quot;font-size: 7px;&quot;&gt;end_game&lt;/font&gt;" style="ellipse;whiteSpace=wrap;html=1;" vertex="1" parent="WIyWlLk6GJQsqaUBKTNV-1">
          <mxGeometry x="460" y="440" width="70" height="20" as="geometry" />
        </mxCell>
        <mxCell id="8Ye4uEbIc81NBBEp1oEI-43" value="" style="endArrow=none;html=1;rounded=0;exitX=1;exitY=0.5;exitDx=0;exitDy=0;" edge="1" parent="WIyWlLk6GJQsqaUBKTNV-1" source="8Ye4uEbIc81NBBEp1oEI-42">
          <mxGeometry width="50" height="50" relative="1" as="geometry">
            <mxPoint x="540" y="500" as="sourcePoint" />
            <mxPoint x="590" y="450" as="targetPoint" />
          </mxGeometry>
        </mxCell>
        <mxCell id="8Ye4uEbIc81NBBEp1oEI-44" value="" style="endArrow=none;html=1;rounded=0;" edge="1" parent="WIyWlLk6GJQsqaUBKTNV-1">
          <mxGeometry width="50" height="50" relative="1" as="geometry">
            <mxPoint x="590" y="360" as="sourcePoint" />
            <mxPoint x="590" y="450" as="targetPoint" />
          </mxGeometry>
        </mxCell>
        <mxCell id="8Ye4uEbIc81NBBEp1oEI-45" value="" style="endArrow=none;html=1;rounded=0;exitX=-0.015;exitY=0.796;exitDx=0;exitDy=0;exitPerimeter=0;" edge="1" parent="WIyWlLk6GJQsqaUBKTNV-1" source="8Ye4uEbIc81NBBEp1oEI-18">
          <mxGeometry width="50" height="50" relative="1" as="geometry">
            <mxPoint x="540" y="500" as="sourcePoint" />
            <mxPoint x="590" y="360" as="targetPoint" />
          </mxGeometry>
        </mxCell>
        <mxCell id="8Ye4uEbIc81NBBEp1oEI-46" value="&lt;b&gt;Buzzer&lt;/b&gt;&lt;br&gt;&lt;div&gt;Period 5&lt;/div&gt;" style="rounded=1;whiteSpace=wrap;html=1;fontSize=12;glass=0;strokeWidth=1;shadow=0;" vertex="1" parent="WIyWlLk6GJQsqaUBKTNV-1">
          <mxGeometry x="600" y="630" width="120" height="100" as="geometry" />
        </mxCell>
        <mxCell id="8Ye4uEbIc81NBBEp1oEI-47" value="&lt;font style=&quot;font-size: 7px;&quot;&gt;buzz_triggered&lt;/font&gt;" style="ellipse;whiteSpace=wrap;html=1;" vertex="1" parent="WIyWlLk6GJQsqaUBKTNV-1">
          <mxGeometry x="365" y="540" width="70" height="20" as="geometry" />
        </mxCell>
        <mxCell id="8Ye4uEbIc81NBBEp1oEI-48" value="" style="endArrow=none;html=1;rounded=0;entryX=0.5;entryY=1;entryDx=0;entryDy=0;" edge="1" parent="WIyWlLk6GJQsqaUBKTNV-1" target="8Ye4uEbIc81NBBEp1oEI-47">
          <mxGeometry width="50" height="50" relative="1" as="geometry">
            <mxPoint x="400" y="680" as="sourcePoint" />
            <mxPoint x="540" y="450" as="targetPoint" />
          </mxGeometry>
        </mxCell>
        <mxCell id="8Ye4uEbIc81NBBEp1oEI-49" value="" style="endArrow=none;html=1;rounded=0;entryX=0;entryY=0.5;entryDx=0;entryDy=0;" edge="1" parent="WIyWlLk6GJQsqaUBKTNV-1" target="8Ye4uEbIc81NBBEp1oEI-46">
          <mxGeometry width="50" height="50" relative="1" as="geometry">
            <mxPoint x="400" y="680" as="sourcePoint" />
            <mxPoint x="540" y="450" as="targetPoint" />
          </mxGeometry>
        </mxCell>
        <mxCell id="8Ye4uEbIc81NBBEp1oEI-50" value="" style="edgeStyle=orthogonalEdgeStyle;rounded=0;html=1;jettySize=auto;orthogonalLoop=1;fontSize=11;endArrow=block;endFill=0;endSize=8;strokeWidth=1;shadow=0;labelBackgroundColor=none;" edge="1" parent="WIyWlLk6GJQsqaUBKTNV-1">
          <mxGeometry x="0.7073" y="-20" relative="1" as="geometry">
            <mxPoint as="offset" />
            <mxPoint x="720" y="679.87" as="sourcePoint" />
            <mxPoint x="790" y="679.61" as="targetPoint" />
          </mxGeometry>
        </mxCell>
        <mxCell id="8Ye4uEbIc81NBBEp1oEI-51" value="PORTB5" style="text;html=1;align=center;verticalAlign=middle;resizable=0;points=[];autosize=1;strokeColor=none;fillColor=none;" vertex="1" parent="WIyWlLk6GJQsqaUBKTNV-1">
          <mxGeometry x="715" y="648" width="70" height="30" as="geometry" />
        </mxCell>
        <mxCell id="8Ye4uEbIc81NBBEp1oEI-52" value="" style="endArrow=none;html=1;rounded=0;entryX=0.427;entryY=1.047;entryDx=0;entryDy=0;entryPerimeter=0;" edge="1" parent="WIyWlLk6GJQsqaUBKTNV-1" target="8Ye4uEbIc81NBBEp1oEI-17">
          <mxGeometry width="50" height="50" relative="1" as="geometry">
            <mxPoint x="540" y="270" as="sourcePoint" />
            <mxPoint x="580" y="340" as="targetPoint" />
          </mxGeometry>
        </mxCell>
        <mxCell id="8Ye4uEbIc81NBBEp1oEI-54" value="" style="endArrow=none;html=1;rounded=0;" edge="1" parent="WIyWlLk6GJQsqaUBKTNV-1">
          <mxGeometry width="50" height="50" relative="1" as="geometry">
            <mxPoint x="430" y="270" as="sourcePoint" />
            <mxPoint x="540" y="270" as="targetPoint" />
          </mxGeometry>
        </mxCell>
        <mxCell id="8Ye4uEbIc81NBBEp1oEI-55" value="" style="endArrow=none;dashed=1;html=1;rounded=0;" edge="1" parent="WIyWlLk6GJQsqaUBKTNV-1">
          <mxGeometry width="50" height="50" relative="1" as="geometry">
            <mxPoint x="430" y="320" as="sourcePoint" />
            <mxPoint x="430" y="270" as="targetPoint" />
          </mxGeometry>
        </mxCell>
        <mxCell id="8Ye4uEbIc81NBBEp1oEI-56" value="" style="endArrow=none;html=1;rounded=0;exitX=0.75;exitY=0;exitDx=0;exitDy=0;" edge="1" parent="WIyWlLk6GJQsqaUBKTNV-1" source="8Ye4uEbIc81NBBEp1oEI-24">
          <mxGeometry width="50" height="50" relative="1" as="geometry">
            <mxPoint x="450" y="340" as="sourcePoint" />
            <mxPoint x="430" y="320" as="targetPoint" />
          </mxGeometry>
        </mxCell>
        <mxCell id="8Ye4uEbIc81NBBEp1oEI-57" value="" style="endArrow=none;html=1;rounded=0;" edge="1" parent="WIyWlLk6GJQsqaUBKTNV-1">
          <mxGeometry width="50" height="50" relative="1" as="geometry">
            <mxPoint x="640" y="160" as="sourcePoint" />
            <mxPoint x="640" y="100" as="targetPoint" />
          </mxGeometry>
        </mxCell>
        <mxCell id="8Ye4uEbIc81NBBEp1oEI-58" value="" style="endArrow=none;dashed=1;html=1;rounded=0;" edge="1" parent="WIyWlLk6GJQsqaUBKTNV-1">
          <mxGeometry width="50" height="50" relative="1" as="geometry">
            <mxPoint x="640" y="200" as="sourcePoint" />
            <mxPoint x="640" y="160" as="targetPoint" />
          </mxGeometry>
        </mxCell>
        <mxCell id="8Ye4uEbIc81NBBEp1oEI-59" value="" style="endArrow=none;html=1;rounded=0;" edge="1" parent="WIyWlLk6GJQsqaUBKTNV-1">
          <mxGeometry width="50" height="50" relative="1" as="geometry">
            <mxPoint x="640" y="280" as="sourcePoint" />
            <mxPoint x="640" y="200" as="targetPoint" />
          </mxGeometry>
        </mxCell>
        <mxCell id="8Ye4uEbIc81NBBEp1oEI-60" value="" style="endArrow=none;html=1;rounded=0;" edge="1" parent="WIyWlLk6GJQsqaUBKTNV-1">
          <mxGeometry width="50" height="50" relative="1" as="geometry">
            <mxPoint x="450" y="280" as="sourcePoint" />
            <mxPoint x="640" y="280" as="targetPoint" />
          </mxGeometry>
        </mxCell>
        <mxCell id="8Ye4uEbIc81NBBEp1oEI-61" value="" style="endArrow=none;dashed=1;html=1;rounded=0;" edge="1" parent="WIyWlLk6GJQsqaUBKTNV-1">
          <mxGeometry width="50" height="50" relative="1" as="geometry">
            <mxPoint x="450" y="320" as="sourcePoint" />
            <mxPoint x="450" y="280" as="targetPoint" />
          </mxGeometry>
        </mxCell>
        <mxCell id="8Ye4uEbIc81NBBEp1oEI-62" value="" style="endArrow=none;html=1;rounded=0;" edge="1" parent="WIyWlLk6GJQsqaUBKTNV-1">
          <mxGeometry width="50" height="50" relative="1" as="geometry">
            <mxPoint x="449" y="400" as="sourcePoint" />
            <mxPoint x="450" y="320" as="targetPoint" />
          </mxGeometry>
        </mxCell>
        <mxCell id="8Ye4uEbIc81NBBEp1oEI-63" value="" style="endArrow=none;html=1;rounded=0;" edge="1" parent="WIyWlLk6GJQsqaUBKTNV-1">
          <mxGeometry width="50" height="50" relative="1" as="geometry">
            <mxPoint x="590" y="450" as="sourcePoint" />
            <mxPoint x="670" y="450" as="targetPoint" />
          </mxGeometry>
        </mxCell>
        <mxCell id="8Ye4uEbIc81NBBEp1oEI-64" value="" style="endArrow=none;html=1;rounded=0;" edge="1" parent="WIyWlLk6GJQsqaUBKTNV-1">
          <mxGeometry width="50" height="50" relative="1" as="geometry">
            <mxPoint x="670" y="460" as="sourcePoint" />
            <mxPoint x="670" y="450" as="targetPoint" />
          </mxGeometry>
        </mxCell>
        <mxCell id="8Ye4uEbIc81NBBEp1oEI-66" value="" style="endArrow=none;dashed=1;html=1;rounded=0;" edge="1" parent="WIyWlLk6GJQsqaUBKTNV-1">
          <mxGeometry width="50" height="50" relative="1" as="geometry">
            <mxPoint x="680" y="380" as="sourcePoint" />
            <mxPoint x="680" y="300" as="targetPoint" />
          </mxGeometry>
        </mxCell>
        <mxCell id="8Ye4uEbIc81NBBEp1oEI-67" value="" style="endArrow=none;html=1;rounded=0;exitX=0.66;exitY=-0.011;exitDx=0;exitDy=0;exitPerimeter=0;" edge="1" parent="WIyWlLk6GJQsqaUBKTNV-1" source="8Ye4uEbIc81NBBEp1oEI-28">
          <mxGeometry width="50" height="50" relative="1" as="geometry">
            <mxPoint x="560" y="350" as="sourcePoint" />
            <mxPoint x="680" y="380" as="targetPoint" />
          </mxGeometry>
        </mxCell>
        <mxCell id="8Ye4uEbIc81NBBEp1oEI-68" value="" style="edgeStyle=orthogonalEdgeStyle;rounded=0;html=1;jettySize=auto;orthogonalLoop=1;fontSize=11;endArrow=block;endFill=0;endSize=8;strokeWidth=1;shadow=0;labelBackgroundColor=none;exitX=1;exitY=0.5;exitDx=0;exitDy=0;" edge="1" parent="WIyWlLk6GJQsqaUBKTNV-1" source="8Ye4uEbIc81NBBEp1oEI-28">
          <mxGeometry x="0.7073" y="-20" relative="1" as="geometry">
            <mxPoint as="offset" />
            <mxPoint x="725" y="509.43" as="sourcePoint" />
            <mxPoint x="795" y="509.17" as="targetPoint" />
          </mxGeometry>
        </mxCell>
        <mxCell id="8Ye4uEbIc81NBBEp1oEI-69" value="PORTD2 -PORTD7" style="text;html=1;align=center;verticalAlign=middle;resizable=0;points=[];autosize=1;strokeColor=none;fillColor=none;" vertex="1" parent="WIyWlLk6GJQsqaUBKTNV-1">
          <mxGeometry x="710" y="480" width="130" height="30" as="geometry" />
        </mxCell>
        <mxCell id="8Ye4uEbIc81NBBEp1oEI-70" value="" style="endArrow=none;html=1;rounded=0;" edge="1" parent="WIyWlLk6GJQsqaUBKTNV-1">
          <mxGeometry width="50" height="50" relative="1" as="geometry">
            <mxPoint x="732.5" y="520" as="sourcePoint" />
            <mxPoint x="767.5" y="500" as="targetPoint" />
          </mxGeometry>
        </mxCell>
        <mxCell id="8Ye4uEbIc81NBBEp1oEI-73" value="" style="edgeStyle=orthogonalEdgeStyle;rounded=0;html=1;jettySize=auto;orthogonalLoop=1;fontSize=11;endArrow=block;endFill=0;endSize=8;strokeWidth=1;shadow=0;labelBackgroundColor=none;exitX=1;exitY=0.5;exitDx=0;exitDy=0;" edge="1" parent="WIyWlLk6GJQsqaUBKTNV-1">
          <mxGeometry x="0.7073" y="-20" relative="1" as="geometry">
            <mxPoint as="offset" />
            <mxPoint x="880" y="330" as="sourcePoint" />
            <mxPoint x="955" y="329.1700000000001" as="targetPoint" />
          </mxGeometry>
        </mxCell>
        <mxCell id="8Ye4uEbIc81NBBEp1oEI-74" value="PORTB0 -PORTB4 &amp;amp; PORTB6" style="text;html=1;align=center;verticalAlign=middle;resizable=0;points=[];autosize=1;strokeColor=none;fillColor=none;" vertex="1" parent="WIyWlLk6GJQsqaUBKTNV-1">
          <mxGeometry x="870" y="300" width="190" height="30" as="geometry" />
        </mxCell>
        <mxCell id="8Ye4uEbIc81NBBEp1oEI-75" value="" style="endArrow=none;html=1;rounded=0;" edge="1" parent="WIyWlLk6GJQsqaUBKTNV-1">
          <mxGeometry width="50" height="50" relative="1" as="geometry">
            <mxPoint x="892.5" y="340" as="sourcePoint" />
            <mxPoint x="927.5" y="320" as="targetPoint" />
          </mxGeometry>
        </mxCell>
        <mxCell id="8Ye4uEbIc81NBBEp1oEI-76" value="&lt;font style=&quot;font-size: 7px;&quot;&gt;kick_off&lt;/font&gt;" style="ellipse;whiteSpace=wrap;html=1;" vertex="1" parent="WIyWlLk6GJQsqaUBKTNV-1">
          <mxGeometry x="460" y="460" width="70" height="20" as="geometry" />
        </mxCell>
        <mxCell id="8Ye4uEbIc81NBBEp1oEI-77" value="" style="endArrow=none;html=1;rounded=0;exitX=1;exitY=0.5;exitDx=0;exitDy=0;" edge="1" parent="WIyWlLk6GJQsqaUBKTNV-1" source="8Ye4uEbIc81NBBEp1oEI-76">
          <mxGeometry width="50" height="50" relative="1" as="geometry">
            <mxPoint x="600" y="410" as="sourcePoint" />
            <mxPoint x="570" y="470" as="targetPoint" />
          </mxGeometry>
        </mxCell>
        <mxCell id="8Ye4uEbIc81NBBEp1oEI-78" value="" style="endArrow=none;dashed=1;html=1;rounded=0;" edge="1" parent="WIyWlLk6GJQsqaUBKTNV-1">
          <mxGeometry width="50" height="50" relative="1" as="geometry">
            <mxPoint x="570" y="470" as="sourcePoint" />
            <mxPoint x="570" y="440" as="targetPoint" />
          </mxGeometry>
        </mxCell>
        <mxCell id="8Ye4uEbIc81NBBEp1oEI-79" value="" style="endArrow=none;html=1;rounded=0;" edge="1" parent="WIyWlLk6GJQsqaUBKTNV-1">
          <mxGeometry width="50" height="50" relative="1" as="geometry">
            <mxPoint x="570" y="440" as="sourcePoint" />
            <mxPoint x="570" y="350" as="targetPoint" />
          </mxGeometry>
        </mxCell>
        <mxCell id="8Ye4uEbIc81NBBEp1oEI-80" value="" style="endArrow=none;html=1;rounded=0;entryX=-0.012;entryY=0.706;entryDx=0;entryDy=0;entryPerimeter=0;" edge="1" parent="WIyWlLk6GJQsqaUBKTNV-1" target="8Ye4uEbIc81NBBEp1oEI-18">
          <mxGeometry width="50" height="50" relative="1" as="geometry">
            <mxPoint x="570" y="351" as="sourcePoint" />
            <mxPoint x="650" y="360" as="targetPoint" />
          </mxGeometry>
        </mxCell>
        <mxCell id="8Ye4uEbIc81NBBEp1oEI-81" value="&lt;b&gt;Period:&lt;/b&gt; 1&lt;div&gt;&lt;br&gt;&lt;div&gt;&lt;b&gt;Global variables:&lt;/b&gt;&lt;/div&gt;&lt;div&gt;unsigned int P1_movement&lt;/div&gt;&lt;div&gt;unsigned int P2_movement&lt;/div&gt;&lt;div&gt;int P1_Position&lt;/div&gt;&lt;div&gt;int P2_Position&lt;/div&gt;&lt;div&gt;int ball_x&lt;/div&gt;&lt;div&gt;int ball_y&lt;/div&gt;&lt;div&gt;int ball_dx&lt;/div&gt;&lt;div&gt;int ball_dy&lt;/div&gt;&lt;div&gt;int P1_score&lt;/div&gt;&lt;div&gt;int P2_score&lt;/div&gt;&lt;div&gt;bool kick_off&lt;/div&gt;&lt;div&gt;bool begin_game&lt;/div&gt;&lt;div&gt;bool end_game&lt;/div&gt;&lt;div&gt;bool buzz_triggered&lt;/div&gt;&lt;div&gt;&lt;br&gt;&lt;/div&gt;&lt;/div&gt;" style="text;html=1;align=center;verticalAlign=middle;whiteSpace=wrap;rounded=0;" vertex="1" parent="WIyWlLk6GJQsqaUBKTNV-1">
          <mxGeometry x="910" y="120" width="200" height="50" as="geometry" />
        </mxCell>
      </root>
    </mxGraphModel>
  </diagram>
</mxfile>
